<?xml version="1.0" standalone="no"?>
<svg version="1.0" xmlns="http://www.w3.org/2000/svg"
 width="270.000000pt" height="271.000000pt" viewBox="0 0 270.000000 271.000000"
 preserveAspectRatio="xMidYMid meet">
<g transform="translate(0.000000,271.000000) scale(0.100000,-0.100000)"
fill="#000000" stroke="none">
<path d="M1047 2533 c-4 -3 -7 -29 -7 -57 l0 -51 -142 0 -143 0 -3 -82 c-2
-62 0 -83 10 -84 7 0 34 0 61 1 l47 1 0 -175 0 -176 -322 -2 -323 -3 0 -70 0
-70 43 -3 42 -3 0 -675 0 -674 -75 0 -75 0 0 -85 0 -85 1180 0 1180 0 0 85 0
85 -75 0 -75 0 0 674 0 675 43 3 42 3 0 70 0 70 -322 3 -323 2 0 176 0 175 48
-1 c26 -1 53 -1 60 -1 10 1 12 22 10 84 l-3 82 -142 0 -142 0 -3 55 -3 55
-291 3 c-160 1 -293 -1 -297 -5z m548 -73 l0 -31 -255 0 c-252 0 -255 0 -258
21 -7 45 -7 45 259 43 l254 -2 0 -31z m292 -120 l0 -40 -547 0 -547 0 0 40 0
40 547 0 547 0 0 -40z m-117 -515 l0 -435 -430 0 -430 0 0 435 0 435 430 0
430 0 0 -435z m-900 10 l0 -25 -300 0 -300 0 0 25 0 25 300 0 300 0 0 -25z
m1540 0 l0 -25 -300 0 -300 0 0 25 0 25 300 0 300 0 0 -25z m-1540 -750 l0
-675 -255 0 -255 0 0 675 0 675 255 0 255 0 0 -675z m1450 0 l0 -675 -255 0
-255 0 0 675 0 675 255 0 255 0 0 -675z m-552 220 l3 -35 -430 0 -431 0 0 33
c0 19 2 36 4 38 2 2 195 3 428 2 l423 -2 3 -36z m2 -490 l0 -405 -90 0 -90 0
0 283 c0 276 -1 283 -24 332 -46 97 -121 145 -226 145 -105 0 -180 -48 -226
-145 -23 -49 -24 -56 -24 -332 l0 -283 -90 0 -90 0 0 405 0 405 430 0 430 0 0
-405z m-450 -45 l0 -360 -90 0 -91 0 3 293 3 294 28 42 c20 29 44 50 80 67 29
13 55 24 60 24 4 0 7 -162 7 -360z m122 329 c21 -11 50 -38 65 -61 l28 -41 3
-294 3 -293 -91 0 -90 0 0 361 0 360 23 -7 c12 -3 39 -15 59 -25z m1033 -774
l0 -35 -1135 0 -1135 0 -3 26 c-2 14 -1 31 1 37 3 9 282 11 1138 10 l1134 -3
0 -35z"/>
<path d="M1288 2099 c-101 -16 -197 -90 -241 -187 -30 -66 -30 -188 0 -253 30
-67 86 -124 155 -159 52 -26 72 -30 138 -30 66 0 86 4 138 30 118 59 177 154
177 285 0 68 -4 89 -28 137 -63 128 -199 199 -339 177z m164 -67 c133 -58 196
-226 134 -357 -43 -93 -151 -165 -246 -165 -56 0 -132 31 -177 73 -62 56 -93
125 -93 202 1 198 200 328 382 247z"/>
<path d="M1277 1984 c-4 -4 -7 -33 -7 -65 l0 -58 -62 -3 -63 -3 0 -70 0 -70
62 -3 62 -3 3 -61 3 -62 65 0 65 0 3 62 3 61 62 3 62 3 0 70 0 70 -62 3 -62 3
-3 62 -3 62 -60 3 c-34 2 -64 0 -68 -4z m95 -106 l3 -63 60 -5 c53 -4 60 -8
62 -27 3 -22 -1 -23 -62 -23 l-65 0 0 -65 0 -65 -30 0 -30 0 0 65 0 65 -65 0
c-61 0 -65 1 -62 23 2 19 9 23 62 27 l60 5 3 63 c3 61 3 62 32 62 29 0 29 -1
32 -62z"/>
<path d="M465 1647 c-3 -7 -4 -78 -3 -157 l3 -145 130 -3 c193 -4 176 -20 173
161 l-3 152 -148 3 c-115 2 -149 0 -152 -11z m255 -147 l0 -110 -107 0 -108 0
0 110 0 110 108 0 107 0 0 -110z"/>
<path d="M462 1088 l3 -153 150 0 150 0 0 150 0 150 -153 3 -153 3 3 -153z
m258 0 l0 -113 -106 1 -106 2 0 106 c1 58 1 108 1 111 1 3 48 5 106 5 l105 0
0 -112z"/>
<path d="M465 817 c-3 -7 -4 -78 -3 -157 l3 -145 150 0 150 0 0 155 0 155
-148 3 c-115 2 -149 0 -152 -11z m255 -147 l0 -110 -107 0 -108 0 0 110 0 110
108 0 107 0 0 -110z"/>
<path d="M1917 1654 c-4 -4 -7 -74 -7 -155 0 -176 -17 -161 175 -157 l130 3 0
155 0 155 -146 3 c-80 1 -148 -1 -152 -4z m258 -154 l0 -110 -107 0 -108 0 0
110 0 110 108 0 107 0 0 -110z"/>
<path d="M1914 1227 c-2 -7 -3 -76 -2 -152 l3 -140 150 0 150 0 3 153 3 152
-151 0 c-114 0 -152 -3 -156 -13z m258 -141 l0 -108 -106 -2 -106 -1 0 113 0
113 106 -3 106 -3 0 -109z"/>
<path d="M1915 817 c-3 -7 -4 -78 -3 -157 l3 -145 150 0 150 0 0 155 0 155
-148 3 c-115 2 -149 0 -152 -11z m260 -147 l0 -110 -107 0 -108 0 0 110 0 110
108 0 107 0 0 -110z"/>
</g>
</svg>
