<svg
version="1.0"
xmlns="http://www.w3.org/2000/svg"
width="284.000000pt"
height="300.000000pt"
viewBox="0 0 284.000000 300.000000"
preserveAspectRatio="xMidYMid meet"
>
{" "}
<g
    transform="translate(0.000000,300.000000) scale(0.100000,-0.100000)"
    fill="#cc0000"
    stroke="none"
>
    {" "}
    <path d="M1945 2884 c-20 -30 -53 -90 -73 -132 -46 -99 -47 -140 -4 -252 62 -159 53 -232 -40 -315 -28 -25 -54 -45 -59 -45 -5 0 -9 15 -9 34 0 20 -16 65 -37 107 -30 57 -56 88 -121 147 -46 40 -86 72 -88 69 -2 -2 7 -29 20 -59 28 -63 46 -150 46 -220 l0 -48 -55 35 c-49 31 -75 42 -75 31 0 -2 16 -27 35 -55 19 -29 37 -66 41 -84 5 -27 19 -40 91 -85 48 -29 88 -51 90 -48 2 2 -6 20 -18 40 -12 20 -19 39 -17 41 3 3 25 -5 49 -16 24 -12 55 -27 69 -33 14 -7 29 -25 34 -41 6 -17 11 -32 13 -34 5 -7 82 55 91 74 6 12 6 30 0 45 -5 14 -7 40 -3 58 7 40 124 217 136 205 4 -4 2 -35 -6 -68 -15 -68 -15 -69 53 -131 34 -31 46 -50 52 -85 8 -39 -3 -182 -15 -218 -3 -7 13 -33 35 -57 22 -24 48 -60 57 -80 13 -27 38 -48 103 -86 47 -28 93 -58 103 -66 29 -25 31 -7 8 84 -29 116 -71 194 -141 267 l-59 60 14 101 c29 202 14 267 -72 321 -112 71 -190 270 -195 501 -1 52 -5 94 -9 94 -4 0 -24 -25 -44 -56z m19 -141 c22 -190 109 -370 210 -432 54 -34 70 -79 63 -181 -4 -48 -11 -98 -15 -111 -9 -22 -10 -21 -22 15 -7 21 -35 63 -62 93 -48 54 -49 56 -43 103 6 41 3 51 -18 76 -24 27 -25 28 -51 11 -32 -21 -78 -83 -114 -152 -18 -36 -25 -64 -25 -102 2 -72 -16 -85 -61 -45 -43 38 -127 60 -161 42 -20 -11 -29 -9 -59 9 -49 31 -55 58 -20 86 28 23 29 25 27 115 l-2 92 26 -23 c28 -27 54 -73 84 -154 28 -74 47 -84 104 -50 75 43 124 125 125 209 0 21 -16 86 -36 145 -20 58 -36 122 -36 142 -1 36 56 169 71 169 5 0 11 -26 15 -57z m315 -904 c34 -39 72 -92 85 -117 29 -57 47 -120 37 -126 -13 -9 -108 56 -125 85 -9 16 -33 49 -52 75 -33 43 -35 49 -28 100 3 30 10 54 14 54 5 0 36 -32 69 -71z" />{" "}
    <path d="M554 2238 c36 -216 34 -271 -11 -376 -38 -88 -46 -144 -30 -204 l7 -27 36 21 c39 23 47 37 63 118 17 84 24 90 58 50 15 -18 33 -40 39 -48 10 -13 16 -12 50 8 21 13 41 25 42 26 2 1 -12 27 -31 56 -23 37 -38 76 -46 122 -20 112 -48 175 -107 233 -62 62 -77 66 -70 21z m100 -132 c7 -17 21 -65 30 -106 10 -41 27 -96 38 -122 12 -27 19 -50 16 -53 -3 -3 -22 8 -43 25 -21 16 -43 30 -50 30 -22 0 -54 -45 -66 -95 -14 -60 -29 -81 -29 -41 0 16 16 69 36 119 36 90 36 91 29 196 -6 96 -5 104 10 91 9 -7 22 -27 29 -44z" />{" "}
    <path d="M778 1712 c-334 -202 -607 -370 -608 -374 0 -4 14 -28 32 -53 28 -39 34 -43 47 -31 9 8 261 164 561 346 300 183 552 337 560 342 11 7 156 -77 575 -332 308 -188 567 -348 576 -356 13 -12 19 -8 47 31 18 25 32 49 32 53 -1 5 -436 271 -1179 719 l-36 21 -607 -366z m1187 -31 c303 -183 556 -338 563 -344 21 -17 -3 -31 -29 -16 -13 7 -255 154 -538 326 -282 173 -528 322 -546 330 -40 19 -30 24 -365 -182 -576 -354 -795 -485 -803 -482 -5 1 -9 7 -10 12 -1 6 171 115 383 243 212 129 466 283 565 343 129 78 187 109 205 106 14 -2 273 -153 575 -336z" />{" "}
    <path d="M888 1571 l-498 -303 0 -382 0 -381 515 3 515 2 0 159 c0 140 2 160 18 174 16 15 53 17 315 17 284 0 298 -1 317 -20 18 -18 20 -33 20 -174 l0 -155 145 -3 145 -3 0 382 0 381 -497 304 -498 303 -497 -304z m964 -27 c249 -152 461 -283 471 -292 16 -14 17 -41 15 -356 l-3 -341 -100 0 -100 0 -5 135 c-8 218 6 210 -375 210 -380 0 -375 3 -375 -190 0 -63 -3 -125 -6 -138 l-6 -22 -467 2 -466 3 -3 341 c-2 308 -1 343 14 355 39 32 921 568 936 568 9 1 221 -123 470 -275z" />{" "}
    <path d="M737 1271 c-212 -140 -227 -167 -156 -265 27 -38 29 -46 29 -137 0 -96 0 -97 31 -123 l31 -26 263 0 263 0 31 26 c31 26 31 27 31 124 0 93 1 99 30 135 74 93 55 125 -158 267 -127 84 -171 108 -197 108 -26 0 -70 -24 -198 -109z m383 -38 c168 -111 184 -129 162 -178 -6 -14 -22 -27 -34 -30 -23 -6 -23 -8 -20 -123 3 -95 1 -120 -11 -130 -11 -9 -84 -12 -288 -10 l-274 3 -3 125 -3 126 -29 11 c-34 13 -49 53 -31 86 18 33 310 226 344 226 19 1 77 -32 187 -106z" />{" "}
    <path d="M822 1125 l-112 -75 0 -110 0 -110 225 0 225 0 0 110 0 110 -107 72 c-60 40 -110 74 -113 76 -3 1 -56 -32 -118 -73z m203 -35 c41 -28 79 -59 85 -69 12 -23 13 -120 2 -139 -7 -9 -50 -12 -183 -10 l-174 3 -3 62 c-2 35 2 72 8 83 13 25 149 119 173 119 10 1 51 -22 92 -49z" />{" "}
    <path d="M1545 425 l0 -305 208 0 207 0 0 305 0 305 -207 0 -208 0 0 -305z m370 0 l0 -260 -160 0 -160 0 -3 91 -3 90 33 15 c18 7 39 26 47 40 13 24 13 30 -3 54 -10 14 -31 31 -47 37 l-29 10 0 87 c0 48 3 91 7 95 4 3 77 5 162 4 l156 -3 0 -260z m-275 16 c7 -15 6 -23 -6 -35 -8 -9 -19 -16 -24 -16 -5 0 -16 7 -24 16 -20 19 -5 54 24 54 11 0 24 -9 30 -19z" />{" "}
    <path d="M390 375 l0 -65 95 0 95 0 0 65 0 65 -95 0 -95 0 0 -65z m145 5 c0 -11 -13 -16 -44 -18 -45 -3 -68 8 -56 28 11 17 100 9 100 -10z" />{" "}
    <path d="M650 375 l0 -65 128 0 127 0 0 65 0 65 -127 0 -128 0 0 -65z m208 3 c3 -16 -6 -18 -82 -18 -65 0 -86 3 -86 13 0 24 13 28 89 25 63 -3 76 -6 79 -20z" />{" "}
    <path d="M970 375 l0 -65 128 0 127 0 0 65 0 65 -127 0 -128 0 0 -65z m208 3 c3 -16 -6 -18 -82 -18 -65 0 -86 3 -86 13 0 24 13 28 89 25 63 -3 76 -6 79 -20z" />{" "}
    <path d="M1290 375 l0 -65 65 0 65 0 0 65 0 65 -65 0 -65 0 0 -65z m78 2 c2 -10 -3 -17 -12 -17 -18 0 -29 16 -21 31 9 14 29 6 33 -14z" />{" "}
    <path d="M2090 375 l0 -65 50 0 50 0 0 65 0 65 -50 0 -50 0 0 -65z" />{" "}
    <path d="M2250 375 l0 -65 65 0 65 0 0 65 0 65 -65 0 -65 0 0 -65z m90 4 c0 -12 -29 -24 -37 -16 -3 4 -3 13 0 21 6 16 37 11 37 -5z" />{" "}
    <path d="M390 185 l0 -65 65 0 65 0 0 65 0 65 -65 0 -65 0 0 -65z m80 1 c0 -8 -5 -18 -11 -22 -14 -8 -33 11 -25 25 10 16 36 13 36 -3z" />{" "}
    <path d="M580 185 l0 -65 130 0 130 0 0 65 0 65 -130 0 -130 0 0 -65z m199 16 c8 -5 11 -16 8 -25 -5 -13 -21 -16 -76 -16 -70 0 -88 8 -77 35 6 17 121 21 145 6z" />{" "}
    <path d="M904 185 l0 -65 128 0 128 0 0 65 0 65 -128 0 -128 0 0 -65z m201 0 c0 -18 -8 -20 -73 -23 -60 -2 -73 0 -79 14 -9 25 16 34 87 32 57 -3 65 -5 65 -23z" />{" "}
    <path d="M1225 185 l0 -65 98 0 97 0 0 65 0 65 -97 0 -98 0 0 -65z m134 16 c8 -5 11 -16 8 -25 -9 -22 -85 -22 -94 0 -7 19 13 34 47 34 14 0 31 -4 39 -9z" />{" "}
    <path d="M2090 185 c0 -55 3 -65 18 -65 14 0 17 10 17 65 0 55 -3 65 -17 65 -15 0 -18 -10 -18 -65z" />{" "}
    <path d="M2190 185 l0 -65 95 0 95 0 0 65 0 65 -95 0 -95 0 0 -65z m141 9 c10 -13 10 -17 -2 -25 -19 -12 -86 -11 -94 1 -21 33 69 56 96 24z" />{" "}
</g>
</svg>