 <svg  version="1.0" xmlns="http://www.w3.org/2000/svg"  width="222.000000pt" height="204.000000pt" viewBox="0 0 222.000000 204.000000"  preserveAspectRatio="xMidYMid meet">  <g transform="translate(0.000000,204.000000) scale(0.100000,-0.100000)" fill="#ffb0b0" stroke="none"> <path d="M1101 1786 c-8 -9 -11 -52 -9 -127 3 -112 4 -114 27 -117 13 -2 28 2 32 10 14 21 11 222 -3 236 -16 16 -33 15 -47 -2z m28 -123 c-1 -60 -4 -84 -8 -63 -6 35 -3 160 5 160 2 0 3 -44 3 -97z"/> <path d="M759 1739 c-10 -19 -2 -30 77 -111 91 -90 115 -102 138 -66 9 15 -3 32 -79 108 -49 49 -97 90 -107 90 -9 0 -22 -10 -29 -21z m181 -163 c0 -6 -34 23 -75 64 -41 41 -75 79 -75 84 0 6 34 -23 75 -64 41 -41 75 -79 75 -84z"/> <path d="M1355 1670 c-76 -76 -88 -93 -79 -108 23 -37 48 -25 137 67 78 80 87 92 77 110 -6 12 -19 21 -28 21 -10 0 -58 -41 -107 -90z m40 -20 c-38 -39 -74 -70 -79 -70 -6 0 23 34 64 75 41 41 76 72 79 69 3 -2 -26 -36 -64 -74z"/> <path d="M514 1565 c-13 -9 -16 -36 -15 -159 l2 -147 -40 -46 c-22 -25 -48 -62 -58 -84 l-18 -38 -98 -1 c-95 0 -99 -1 -128 -29 -29 -29 -29 -30 -29 -148 0 -93 3 -123 16 -142 26 -37 77 -53 161 -50 l75 2 25 -44 c13 -24 40 -63 59 -86 l34 -41 0 -119 c0 -174 19 -193 195 -193 162 0 205 29 205 140 l0 50 150 0 150 0 0 -50 c0 -111 43 -140 205 -140 175 0 195 19 195 192 l0 117 49 65 c68 90 93 159 99 276 l4 95 31 2 c49 4 116 44 148 88 32 44 51 123 37 149 -20 35 -68 11 -68 -33 0 -62 -74 -131 -140 -131 -33 0 -36 4 -60 58 -49 114 -183 220 -326 257 -76 20 -187 20 -204 0 -19 -23 -4 -47 81 -130 l80 -78 -107 -108 -107 -107 5 -52 5 -52 -68 68 -69 69 85 85 c47 47 85 92 85 100 0 9 -46 61 -102 117 l-103 102 -84 3 -84 3 -11 33 c-15 44 -60 98 -98 118 -43 22 -144 34 -164 19z m127 -34 c36 -13 86 -57 92 -81 7 -28 -7 -25 -23 6 -20 37 -92 76 -124 68 -39 -9 -46 -32 -47 -146 -2 -132 -8 -108 -11 44 -3 111 -2 117 17 120 28 5 67 0 96 -11z m-5 -47 c41 -19 72 -67 82 -126 l8 -43 96 4 96 3 77 -77 76 -78 -85 -86 c-47 -48 -86 -91 -86 -97 0 -14 244 -264 258 -264 31 0 42 32 42 123 l0 92 110 110 c61 60 110 117 110 126 0 9 -29 44 -65 78 -36 35 -65 65 -65 68 0 2 8 2 18 -1 9 -2 42 -11 73 -20 181 -51 311 -235 296 -418 -7 -85 -48 -178 -106 -241 l-40 -44 -3 -134 -3 -134 -114 -3 c-73 -2 -118 1 -127 9 -8 7 -14 38 -16 87 l-3 77 -215 0 -215 0 -3 -77 c-2 -49 -8 -80 -16 -87 -9 -8 -54 -11 -127 -9 l-114 3 -3 134 -3 134 -39 43 c-21 23 -53 70 -69 103 l-31 60 -112 3 -113 3 -3 94 c-2 60 1 98 9 107 8 10 38 14 115 14 l104 0 30 61 c17 33 49 80 71 103 l39 43 0 137 c0 151 0 151 66 120z m126 -94 c17 -29 19 -30 97 -30 l80 0 98 -95 97 -95 -76 -78 c-42 -42 -79 -87 -83 -99 -5 -17 4 -33 37 -70 88 -96 117 -112 138 -74 5 11 10 39 10 63 0 41 4 48 95 138 57 57 95 103 95 115 0 12 -31 51 -75 95 -41 41 -75 81 -75 88 0 9 15 12 55 11 l55 -2 -21 -23 c-19 -20 -20 -24 -5 -50 8 -16 36 -49 61 -73 l46 -45 -108 -108 -108 -108 -3 -83 c-2 -45 -5 -88 -8 -96 -3 -10 -41 21 -114 94 -61 61 -110 114 -110 120 0 5 34 44 75 85 46 46 75 83 75 97 0 25 -81 117 -139 157 -37 26 -46 28 -123 24 -83 -3 -83 -3 -84 22 0 14 -3 31 -8 38 -4 6 -4 12 1 12 4 0 16 -14 25 -30z m702 -80 c37 -18 88 -53 114 -79 49 -47 112 -135 112 -156 0 -6 12 -21 26 -34 18 -15 23 -28 18 -39 -4 -9 -8 -48 -10 -87 -5 -83 -8 -102 -17 -111 -4 -4 -7 -16 -7 -26 0 -10 -4 -26 -9 -36 -5 -9 -14 -28 -20 -42 -7 -14 -32 -53 -57 -85 l-45 -60 2 -117 c2 -130 -5 -151 -59 -161 -24 -4 -25 -3 -8 7 53 31 56 39 56 165 l0 120 55 76 c30 43 55 81 55 85 0 4 7 25 16 46 18 44 21 186 4 249 -6 22 -12 46 -12 53 -1 6 -4 12 -8 12 -4 0 -12 12 -19 26 -42 94 -179 195 -295 219 -35 8 -31 18 5 12 21 -3 67 -20 103 -37z m-931 -55 c4 -8 -9 -33 -29 -57 -20 -23 -47 -64 -60 -90 -24 -48 -48 -68 -62 -53 -4 3 0 12 8 18 9 7 26 29 39 50 12 20 38 56 57 78 19 23 34 47 34 55 0 18 6 18 13 -1z m1404 -92 c-11 -63 -89 -143 -141 -143 -10 0 -17 3 -13 6 3 3 8 5 11 5 16 -3 66 32 90 61 14 18 31 39 36 45 6 7 10 15 10 18 -1 19 1 25 5 25 3 0 4 -8 2 -17z m-1720 -119 c-38 -20 -47 -50 -47 -149 l0 -84 36 -29 c33 -27 34 -29 10 -25 -49 10 -57 32 -58 148 0 97 2 109 23 131 12 13 32 24 43 24 18 -1 17 -3 -7 -16z m223 -326 c12 -24 39 -66 61 -95 l39 -52 0 -121 c0 -128 -1 -123 55 -164 19 -13 18 -14 -7 -9 -52 10 -59 29 -61 165 l-2 125 -36 44 c-46 57 -99 145 -92 153 10 9 20 -2 43 -46z m802 -313 c0 -65 11 -87 55 -116 34 -23 23 -25 -22 -3 -39 18 -45 30 -52 99 -3 29 -11 55 -21 63 -20 15 -274 17 -303 2 -14 -8 -19 -21 -19 -51 0 -58 -25 -105 -62 -118 -46 -16 -47 -14 -6 14 39 26 51 57 48 122 -1 21 -2 41 -1 46 1 4 87 6 192 5 l192 -3 -1 -60z"/> <path d="M542 1158 c-17 -17 -15 -31 8 -60 19 -25 19 -26 0 -43 -26 -24 -25 -51 1 -66 18 -9 26 -7 48 8 25 20 26 20 51 1 15 -10 33 -16 42 -13 26 10 30 37 10 65 -19 25 -19 26 1 51 36 50 -17 95 -58 49 -17 -19 -18 -19 -43 0 -29 23 -43 25 -60 8z m112 -40 c29 13 31 10 14 -18 -10 -15 -10 -27 -1 -50 13 -34 11 -35 -17 -18 -15 10 -27 10 -50 1 -28 -10 -42 -2 -20 12 6 3 10 17 10 30 0 13 -4 27 -10 30 -22 14 -8 23 19 12 22 -8 36 -8 55 1z"/> </g> 
</svg> 